{
  "accessors": [
    {
      "bufferView": 1,
      "componentType": 5126,
      "count": 7796,
      "max": [
        1.025288701057434,
        0.9899948835372925,
        1.012599229812622
      ],
      "min": [
        -0.9985874891281128,
        -1.0538586378097534,
        -0.9964712262153625
      ],
      "type": "VEC3"
    },
    {
      "bufferView": 1,
      "byteOffset": 93552,
      "componentType": 5126,
      "count": 7796,
      "max": [
        0.9999933242797852,
        0.9999889731407166,
        0.9999777674674988
      ],
      "min": [
        -0.999984085559845,
        -0.9999037981033325,
        -0.9999879002571106
      ],
      "type": "VEC3"
    },
    {
      "bufferView": 0,
      "componentType": 5125,
      "count": 26697,
      "type": "SCALAR"
    },
    {
      "bufferView": 1,
      "byteOffset": 187104,
      "componentType": 5126,
      "count": 7796,
      "max": [
        1.0151351690292358,
        0.9833649396896362,
        1.0024110078811646
      ],
      "min": [
        -0.9884004592895508,
        -1.0436789989471436,
        -0.9869018793106079
      ],
      "type": "VEC3"
    },
    {
      "bufferView": 1,
      "byteOffset": 280656,
      "componentType": 5126,
      "count": 7796,
      "max": [
        0.999993622303009,
        0.9999889135360718,
        0.9999788403511047
      ],
      "min": [
        -0.9999841451644897,
        -0.9999092221260071,
        -0.9999885559082031
      ],
      "type": "VEC3"
    },
    {
      "bufferView": 0,
      "byteOffset": 106788,
      "componentType": 5125,
      "count": 26697,
      "type": "SCALAR"
    }
  ],
  "asset": {
    "extras": {
      "author": "tamminen (https://sketchfab.com/tamminen)",
      "license": "CC-BY-4.0 (http://creativecommons.org/licenses/by/4.0/)",
      "source": "https://sketchfab.com/3d-models/lava-cube-6bd7c2d761d5493c884983c5aa2d6f80",
      "title": "Lava Cube"
    },
    "generator": "Sketchfab-15.75.0",
    "version": "2.0"
  },
  "bufferViews": [
    {
      "buffer": 0,
      "byteLength": 213576,
      "name": "floatBufferViews",
      "target": 34963
    },
    {
      "buffer": 0,
      "byteLength": 374208,
      "byteOffset": 213576,
      "byteStride": 12,
      "name": "floatBufferViews",
      "target": 34962
    }
  ],
  "buffers": [
    {
      "byteLength": 587784,
      "uri": "scene.bin"
    }
  ],
  "extensionsUsed": [
    "KHR_materials_specular"
  ],
  "materials": [
    {
      "doubleSided": true,
      "extensions": {
        "KHR_materials_specular": {
          "specularColorFactor": [
            1.0,
            1.0,
            1.0
          ],
          "specularFactor": 0.2544769660250393
        }
      },
      "name": "Stone",
      "pbrMetallicRoughness": {
        "baseColorFactor": [
          1.0,
          0.0,
          0.0,
          1.0
        ],
        "metallicFactor": 0.7847642964245224,
        "roughnessFactor": 0.1630481159561629
      }
    },
    {
      "doubleSided": true,
      "emissiveFactor": [
        1.0,
        0.47230732036261786,
        0.0
      ],
      "extensions": {
        "KHR_materials_specular": {
          "specularColorFactor": [
            1.0,
            1.0,
            1.0
          ],
          "specularFactor": 0.0
        }
      },
      "name": "magma",
      "pbrMetallicRoughness": {
        "baseColorFactor": [
          1.0,
          0.770083,
          0.0,
          1.0
        ],
        "metallicFactor": 0.0
      }
    }
  ],
  "meshes": [
    {
      "name": "Object_0",
      "primitives": [
        {
          "attributes": {
            "NORMAL": 1,
            "POSITION": 0
          },
          "indices": 2,
          "material": 0,
          "mode": 4
        }
      ]
    },
    {
      "name": "Object_1",
      "primitives": [
        {
          "attributes": {
            "NORMAL": 4,
            "POSITION": 3
          },
          "indices": 5,
          "material": 1,
          "mode": 4
        }
      ]
    }
  ],
  "nodes": [
    {
      "children": [
        1
      ],
      "matrix": [
        1.0,
        0.0,
        0.0,
        0.0,
        0.0,
        2.220446049250313e-16,
        -1.0,
        0.0,
        0.0,
        1.0,
        2.220446049250313e-16,
        0.0,
        0.0,
        0.0,
        0.0,
        1.0
      ],
      "name": "Sketchfab_model"
    },
    {
      "children": [
        2
      ],
      "name": "root"
    },
    {
      "children": [
        3
      ],
      "matrix": [
        1.0,
        0.0,
        0.0,
        0.0,
        0.0,
        2.220446049250313e-16,
        1.0,
        0.0,
        0.0,
        -1.0,
        2.220446049250313e-16,
        0.0,
        0.0,
        0.0,
        0.0,
        1.0
      ],
      "name": "GLTF_SceneRootNode"
    },
    {
      "children": [
        4,
        5
      ],
      "name": "Cube_0"
    },
    {
      "mesh": 0,
      "name": "Object_4"
    },
    {
      "mesh": 1,
      "name": "Object_5"
    }
  ],
  "scene": 0,
  "scenes": [
    {
      "name": "Sketchfab_Scene",
      "nodes": [
        0
      ]
    }
  ]
}
